<svg xmlns="http://www.w3.org/2000/svg" width="40" height="40" viewBox="0 0 40 40"><path d="m20 0a20 20 0 0 0-20 20 20 20 0 0 0 20 20 20 20 0 0 0 20-20A20 20 0 0 0 20 0Zm-8.67 7.04c0.54 0.01 0.97 0.11 1.38 0.31 0.38 0.19 0.66 0.41 0.93 0.74 0.4 0.5 0.62 1.23 0.58 1.9-0.08 1.39-1.07 2.4-2.52 2.59-0.22 0.03-0.5 0.04-0.72 0.03-1.25-0.06-2.23-0.75-2.61-1.83-0.18-0.53-0.21-1.13-0.07-1.68 0.28-1.09 1.17-1.85 2.37-2.03 0.23-0.03 0.41-0.04 0.66-0.04zm15.75 7.42c0.46 0 0.92 0.05 1.35 0.13 0.99 0.19 1.84 0.59 2.56 1.2 0.15 0.13 0.45 0.43 0.59 0.59 0.9 1.05 1.43 2.48 1.59 4.27 0.04 0.45 0.04 0.36 0.04 5.47l0 4.91-2.67 0-2.67 0-0.01-4.57c0-3.48-0.01-4.6-0.02-4.7-0.02-0.21-0.06-0.5-0.08-0.64-0.19-1.05-0.65-1.77-1.36-2.14-0.26-0.14-0.59-0.23-0.93-0.26-0.16-0.02-0.53-0.01-0.69 0.01-0.45 0.05-0.84 0.2-1.2 0.44-0.18 0.12-0.26 0.19-0.43 0.35-0.46 0.45-0.79 1.06-0.88 1.6-0.06 0.34-0.05-0.06-0.06 5.15l-0.01 4.77-2.67 0-2.67 0 0.01-1.2 0 0c0-0.66 0.01-3.37 0.02-6.03 0.01-4.01 0.01-5.16 0-6.76-0.01-1.06-0.02-1.99-0.02-2.06l0-0.13 2.67 0 2.67 0 0 1.13c0 0.93 0 1.13 0.02 1.13 0.01 0 0.06-0.07 0.12-0.16 0.89-1.33 1.99-2.09 3.42-2.37 0.41-0.08 0.86-0.12 1.32-0.12zm-18.56 0.39 2.67 0 2.67 0 0 8.09 0 8.09-2.67 0c-2.13 0-2.67 0-2.67-0.01l0-0.01 0-8.09 0-8.08zm13.66 2.31c-0.01 0.02-0.01 0.04 0.01 0.04 0.01 0 0.01-0.01 0.02-0.02 0.01-0.02-0.01-0.04-0.03-0.02z"></path></svg>