<svg xmlns="http://www.w3.org/2000/svg" width="40" height="40" viewBox="0 0 40 40"><path d="M20 0A20 20 0 0 0 0 20 20 20 0 0 0 14.92 39.32c-0.03-0.04-0.02-0.08 0-0.16 0.07-0.23 0.04-4.17-0.03-4.24-0.03-0.03-0.34 0-0.69 0.05-0.77 0.12-2.18 0.14-2.81 0.03-1.12-0.19-1.95-0.59-2.68-1.29C8.24 33.27 8.15 33.13 7.7 32.23c-0.75-1.53-1.21-2.08-2.43-2.95-0.25-0.18-0.51-0.41-0.57-0.52-0.1-0.17-0.1-0.2 0.01-0.3 0.33-0.32 1.4-0.23 2.21 0.19 0.6 0.31 1.39 1.06 1.84 1.74 1.08 1.64 2.56 2.4 4.28 2.21 0.7-0.08 1.76-0.38 1.89-0.53 0.04-0.05 0.14-0.34 0.22-0.64 0.17-0.67 0.54-1.41 0.89-1.81 0.14-0.16 0.24-0.32 0.2-0.35-0.03-0.03-0.51-0.12-1.05-0.21-4.35-0.68-6.96-2.65-7.97-6.05-0.43-1.44-0.64-3.64-0.47-4.91 0.2-1.5 0.73-2.79 1.62-3.93L8.85 13.56 8.69 12.93c-0.33-1.29-0.25-2.91 0.2-4.22l0.19-0.56 0.68 0.01c1.11 0.01 2.44 0.5 4.25 1.57l0.88 0.51 0.58-0.13c3.06-0.69 6.37-0.7 9.33-0.02l0.71 0.16 0.86-0.51c1.7-1.02 3.09-1.53 4.27-1.6l0.65-0.04 0.14 0.37c0.2 0.52 0.36 1.24 0.45 2.03 0.09 0.8 0 1.86-0.22 2.56-0.08 0.25-0.12 0.48-0.1 0.52 0.02 0.04 0.25 0.33 0.5 0.66 0.77 0.99 1.33 2.3 1.54 3.59 0.1 0.65 0.04 3.08-0.1 3.8-0.27 1.39-0.65 2.46-1.19 3.36-1.35 2.24-3.74 3.57-7.37 4.11-0.91 0.13-0.94 0.17-0.55 0.59 0.43 0.47 0.78 1.26 0.96 2.19 0.04 0.2 0.07 1.91 0.08 3.87l0.01 3.51A20 20 0 0 0 40 20 20 20 0 0 0 20 0ZM6.63 28.79c-0.2 0.02-0.28 0.21-0.14 0.37 0.11 0.13 0.49 0.13 0.54-0.01 0.06-0.16-0.19-0.38-0.4-0.36zm0.84 0.7c-0.04 0.01-0.07 0.02-0.1 0.05-0.15 0.12-0.13 0.27 0.05 0.46 0.19 0.2 0.38 0.21 0.49 0.02 0.13-0.24-0.2-0.57-0.44-0.52zm0.83 1.07c-0.21 0.06-0.26 0.37-0.02 0.62 0.18 0.18 0.39 0.18 0.51 0.01l0 0c0.11-0.16-0.02-0.48-0.23-0.59-0.1-0.05-0.18-0.06-0.25-0.04zm1.16 1.16c-0.1-0.01-0.19 0.02-0.27 0.09-0.17 0.17-0.13 0.37 0.12 0.56 0.23 0.17 0.49 0.18 0.58 0 0.15-0.28-0.14-0.62-0.43-0.65zm1.56 0.89c-0.4-0.1-0.66 0.28-0.36 0.53 0.25 0.21 0.43 0.23 0.64 0.08 0.29-0.19 0.14-0.52-0.28-0.62zm3.35 0.04c-0.06 0-0.13 0.03-0.25 0.08-0.22 0.1-0.25 0.15-0.24 0.31 0.04 0.34 0.55 0.43 0.81 0.15 0.16-0.17 0.11-0.35-0.12-0.48-0.09-0.05-0.14-0.07-0.2-0.07zm-1.67 0.2c-0.37 0-0.62 0.45-0.34 0.62 0.16 0.09 0.49 0.09 0.66 0l0 0c0.3-0.16 0.06-0.62-0.32-0.62z"></path></svg>