<svg xmlns="http://www.w3.org/2000/svg" width="40" height="40" viewBox="0 0 40 40"><path d="M20 0A20 20 0 0 0 0 20 20 20 0 0 0 20 40 20 20 0 0 0 40 20 20 20 0 0 0 20 0Zm0.2 6.82c0.32 0 12.3 7.85 13.1 8.58 0.38 0.35 0.38 0.4 0.38 4.9 0 4.5 0 4.55-0.38 4.9-0.8 0.73-12.78 8.58-13.1 8.58-0.18 0-3.12-1.85-6.52-4.12l0-0.03c-3.4-2.26-6.36-4.27-6.57-4.47-0.38-0.35-0.38-0.43-0.38-4.87 0-4.5 0-4.55 0.38-4.9 0.8-0.73 12.78-8.58 13.1-8.58zm-1.26 3.28c-0.38-0.15-9.01 5.68-8.95 6.04 0.06 0.32 3.49 2.74 3.9 2.76 0.14 0 1.37-0.74 2.73-1.66l2.47-1.66 0.05-2.69c0.04-2.21 0-2.71-0.2-2.79zm2.52 0c-0.2 0.08-0.24 0.58-0.2 2.79l0.05 2.69 2.47 1.66c1.36 0.91 2.57 1.66 2.69 1.66 0.12 0 1.06-0.56 2.09-1.24 1.18-0.78 1.87-1.35 1.88-1.54 0.01-0.38-8.61-6.17-8.97-6.03zm-1.26 7.21-2.01 1.35c-1.1 0.74-2 1.47-2 1.61 0 0.22 3.71 2.9 4.01 2.9 0.05 0 0.98-0.59 2.05-1.32 1.08-0.73 1.96-1.44 1.96-1.58 0-0.14-0.9-0.87-2.01-1.61L20.2 17.31ZM9.04 18.4c-0.22 0-0.26 0.3-0.26 1.88 0 1.58 0.04 1.88 0.26 1.88 0.15 0 0.84-0.39 1.54-0.86 0.7-0.47 1.27-0.93 1.27-1.02 0-0.22-2.48-1.88-2.81-1.88zm22.34 0c-0.33 0-2.81 1.66-2.81 1.88 0 0.23 2.41 1.86 2.77 1.87 0.27 0.01 0.3-0.19 0.3-1.87 0-1.58-0.04-1.88-0.26-1.88zm-17.39 3.24c-0.35 0-4.02 2.57-4.02 2.82 0 0.3 8.5 6.05 8.87 6 0.22-0.03 0.26-0.47 0.26-2.76l0-2.73-2.47-1.66c-1.36-0.92-2.55-1.66-2.64-1.66zm12.53 0.01c-0.14 0-1.37 0.74-2.73 1.66l-2.47 1.66-0.05 2.55c-0.05 2.61-0.01 2.99 0.3 2.99 0.1 0 2.14-1.31 4.54-2.91 3.2-2.13 4.34-2.99 4.3-3.2-0.06-0.32-3.49-2.74-3.9-2.76z"></path></svg>