<?xml version="1.0" standalone="no"?>
<!DOCTYPE svg PUBLIC "-//W3C//DTD SVG 20010904//EN"
 "http://www.w3.org/TR/2001/REC-SVG-20010904/DTD/svg10.dtd">
<svg version="1.0" xmlns="http://www.w3.org/2000/svg"
 width="880.000000pt" height="880.000000pt" viewBox="0 0 880.000000 880.000000"
 preserveAspectRatio="xMidYMid meet">
<metadata>
Created by potrace 1.11, written by Peter Selinger 2001-2013
</metadata>
<g transform="translate(0.000000,880.000000) scale(0.100000,-0.100000)"
fill="#000000" stroke="none">
<path d="M1200 4400 l0 -4400 3200 0 3200 0 0 3521 c0 2803 -3 3523 -12 3533
-11 11 -88 97 -150 169 -21 23 -145 162 -173 193 -11 12 -45 50 -75 84 -30 34
-64 72 -75 84 -38 42 -162 181 -201 225 -22 24 -51 56 -65 72 -14 15 -52 58
-85 95 -32 37 -68 77 -79 90 -49 54 -145 161 -162 180 -28 33 -145 164 -173
194 -31 34 -149 166 -173 194 -10 12 -48 54 -84 94 l-66 72 -2413 0 -2414 0 0
-4400z"/>
</g>
</svg>
